<svg viewBox="0 0 24 24" fill="currentColor" xmlns="http://www.w3.org/2000/svg">
  <path d="M.045 18.02c.071-.116.36-.198.543-.198.182 0 .398.066.473.206.074.14.025.31-.1.44-.124.13-.338.2-.547.2-.208 0-.407-.07-.456-.21-.05-.14.015-.322.087-.438zM13.35 21.45c1.178-.474 2.282-1.108 3.285-1.884-.17-.136-.32-.29-.447-.463-.96-.48-1.96-.9-2.99-1.26-.27-.09-.53-.19-.81-.27-.26-.08-.53-.16-.79-.25l-.39-.12c-.13-.04-.26-.1-.38-.15-.25-.1-.48-.22-.71-.36-.23-.14-.44-.3-.62-.5-.09-.1-.18-.21-.26-.32-.07-.12-.14-.24-.18-.37-.05-.12-.08-.26-.09-.39s0-.27.02-.4c.03-.13.07-.26.13-.38.05-.12.12-.24.21-.34.09-.11.19-.2.3-.28.12-.08.24-.15.38-.21.13-.06.28-.1.42-.14.15-.03.3-.05.46-.05.16 0 .3.02.45.06.15.04.29.1.42.17.14.07.26.16.37.27.11.1.21.23.29.36.16.28.26.6.26.93 0 .15-.02.31-.07.45-.04.15-.1.29-.19.42 1.14.42 2.24.96 3.28 1.59.28-.56.44-1.19.44-1.85 0-.49-.08-.97-.24-1.42-.16-.46-.4-.88-.71-1.25-.31-.37-.69-.68-1.12-.92-.43-.24-.92-.4-1.43-.48-.51-.08-1.05-.07-1.55.02-.51.1-.99.28-1.43.55-.44.27-.83.62-1.14 1.03-.31.41-.54.88-.68 1.38-.14.5-.19 1.03-.14 1.55.05.52.2 1.02.43 1.48.23.46.55.87.93 1.21.38.34.83.61 1.32.79.49.18 1.02.28 1.56.28.54 0 1.06-.1 1.55-.3zM21.6 19.8c-.46.38-.94.72-1.44 1.02-.5.3-1.03.56-1.58.78-.55.22-1.12.4-1.7.52-.58.12-1.17.19-1.77.19s-1.19-.07-1.77-.19c-.58-.12-1.15-.3-1.7-.52-.55-.22-1.08-.48-1.58-.78-.5-.3-.98-.64-1.44-1.02-.46-.38-.88-.8-1.26-1.26-.38-.46-.72-.96-1-1.48-.28-.53-.51-1.08-.68-1.66-.17-.57-.28-1.17-.32-1.78H4.7c-.04.27-.06.53-.06.8 0 .68.09 1.34.28 1.97.18.63.45 1.23.79 1.79.34.56.75 1.07 1.22 1.52.47.45 1 .84 1.57 1.16.57.32 1.18.57 1.82.73.64.16 1.31.24 1.98.24.68 0 1.34-.08 1.98-.24.64-.16 1.25-.41 1.82-.73.57-.32 1.1-.71 1.57-1.16.47-.45.88-.96 1.22-1.52.34-.56.61-1.16.79-1.79.18-.63.28-1.29.28-1.97 0-.27-.02-.53-.06-.8h-.3z"/>
</svg>